<svg width="95" height="120" viewBox="0 0 95 120" fill="none" xmlns="http://www.w3.org/2000/svg">
<g clip-path="url(#clip0_4_69)">
<path d="M94.5483 92.9571L48.9295 119.563L48.9174 119.556V83.1046L94.5377 56.5003L94.5483 56.5068V92.9571Z" fill="#6B43B5"/>
<path d="M48.9359 119.992L48.5479 119.788V82.9218L48.6987 82.8025L94.5349 56.0689L94.9193 56.281V93.1421L94.7317 93.2857L48.9359 119.993V119.992ZM49.2899 83.3211V118.921L94.1781 92.7421V57.1433L49.2899 83.3211Z" fill="#6B43B5"/>
<path d="M51.5251 115.612V98.0784H52.0971V114.618L91.4869 91.9184V61.9981H92.059V92.2535L51.5251 115.612Z" fill="#D8C2FF"/>
<path d="M88.2894 63.74L66.7348 76.2253L67.0196 76.7259L88.5743 64.2405L88.2894 63.74Z" fill="#D8C2FF"/>
<path d="M64.4314 77.5962L57.4788 81.6235L57.7636 82.124L64.7162 78.0968L64.4314 77.5962Z" fill="#D8C2FF"/>
<path d="M48.9061 119.563L0.451641 91.3348V54.8852L0.462261 54.878L48.9174 83.1046V119.556L48.9061 119.563Z" fill="#D8C2FF"/>
<path d="M48.8927 120L0.0806427 91.5555V54.6716L0.448103 54.4473L49.2877 82.8867V119.782L48.8927 120.001V120ZM0.822643 91.1205L48.5457 118.92V83.3182L0.822643 55.521V91.1205Z" fill="#6B43B5"/>
<path d="M3.55842 59.7421H2.81429V82.8124H3.55842V59.7421Z" fill="#6B43B5"/>
<path d="M0.462265 54.878L48.9174 83.1046L94.5377 56.5003V56.4861L46.0825 28.2787L0.462265 54.8645V54.878Z" fill="white"/>
<path d="M48.8948 83.5504L48.6909 83.4018L0.0905556 55.1002L0.0863075 54.6494L46.0656 27.853L94.9116 56.2703V56.7039L48.8948 83.5511V83.5504ZM1.19435 54.8709L48.921 82.6724L93.8071 56.4932L46.0826 28.7088L1.19435 54.8709Z" fill="#6B43B5"/>
<path d="M87.3308 56.8397L46.0783 32.8271L8.28017 54.8602L7.90846 54.2108L46.0783 31.9606L87.7033 56.1903L87.3308 56.8397Z" fill="#6B43B5"/>
<path d="M83.945 59.035L65.2432 69.763L65.6106 70.4151L84.3124 59.687L83.945 59.035Z" fill="#6B43B5"/>
<path d="M33.9797 53.3729L51.8047 63.7568C54.1546 65.1256 58.259 64.9541 60.9728 63.3732C63.6859 61.7923 63.9812 59.4014 61.6313 58.0327L43.8063 47.6487C41.4564 46.28 37.352 46.4514 34.6382 48.0323C31.9251 49.6132 31.6305 52.0041 33.9797 53.3729Z" fill="#D8C2FF"/>
<path d="M55.7066 65.0555C54.3635 65.0455 53.1231 64.7991 52.1241 64.3419L52.4313 63.659C53.3355 64.0726 54.4669 64.2962 55.7066 64.3055V65.0555ZM57.5142 64.927L57.4058 64.1847C58.5847 64.009 59.6949 63.6497 60.616 63.1453L60.9714 63.8047C59.9745 64.3505 58.7794 64.7391 57.5149 64.927H57.5142ZM50.5551 63.4618L47.5078 61.6866L47.8795 61.0365L50.9268 62.8117L50.5551 63.4618ZM62.4767 62.7053L61.9541 62.1717C62.5375 61.5902 62.8462 60.9615 62.8455 60.3522C62.8455 60.0321 62.7599 59.7214 62.5906 59.4285L63.2328 59.0506C63.47 59.4599 63.5897 59.8978 63.5897 60.3522C63.5897 61.1658 63.2052 61.9802 62.4767 62.7053ZM45.9841 60.7987L42.9368 59.0235L43.3085 58.3734L46.3558 60.1486L45.9841 60.7987ZM61.4543 58.3627L61.6412 58.0384L61.4465 58.3577L58.4084 56.5882L58.7801 55.9381L61.8168 57.7069L61.4543 58.362V58.3627ZM41.4125 58.1355L38.3652 56.3603L38.7369 55.7102L41.7842 57.4854L41.4125 58.1355ZM56.8847 55.701L53.8375 53.9258L54.2092 53.2757L57.2565 55.0509L56.8847 55.7002V55.701ZM36.8415 55.4724L33.7942 53.6972L34.1447 53.035L37.2139 54.823L36.8422 55.4731L36.8415 55.4724ZM52.3138 53.0378L49.2658 51.2626L49.6375 50.6126L52.6855 52.3878L52.3138 53.0371V53.0378ZM32.3718 52.3427C32.1396 51.937 32.0214 51.5034 32.0214 51.0533C32.0214 50.2354 32.4094 49.4181 33.1443 48.6909L33.6647 49.226C33.0756 49.8089 32.7648 50.4411 32.7655 51.0533C32.7655 51.3705 32.849 51.6784 33.0154 51.9684L32.3718 52.3435V52.3427ZM47.7421 50.3754L44.6948 48.6002L45.0665 47.9501L48.1138 49.7253L47.7421 50.3754ZM35.0056 48.2545L34.6516 47.5944C35.6499 47.05 36.8458 46.6629 38.1103 46.4764L38.2172 47.2186C37.0391 47.3929 35.9275 47.7508 35.0056 48.2545ZM43.1903 47.7515C42.2876 47.3365 41.1548 47.1115 39.9136 47.1008L39.9207 46.3507C41.2652 46.3621 42.5021 46.6107 43.4983 47.0693L43.1896 47.7515H43.1903Z" fill="#6B43B5"/>
<path d="M36.9173 52.7714L52.837 62.0452C54.2375 62.861 56.6844 62.7589 58.3015 61.8166C59.9186 60.8744 60.0942 59.4492 58.6937 58.6334L42.774 49.3596C41.3735 48.5438 38.9266 48.6459 37.3095 49.5882C35.6924 50.5304 35.5168 51.9556 36.9173 52.7714Z" fill="#6B43B5"/>
<path d="M41.6164 50.0439H40.8723V53.5064H41.6164V50.0439Z" fill="#D8C2FF"/>
<path d="M46.1746 52.0849H45.4305V54.1258H46.1746V52.0849Z" fill="#D8C2FF"/>
<path d="M57.1354 58.5963H56.3913V61.4087H57.1354V58.5963Z" fill="#D8C2FF"/>
<path d="M55.0942 8.37732C55.0708 8.10158 55.0382 7.83441 55.0007 7.57081L57.5694 5.11483C57.643 5.04482 57.6282 4.92338 57.5411 4.87266L51.0231 1.09868C49.0116 0.06143 46.4054 0.0978624 43.5266 1.408C35.6273 5.00267 28.945 16.076 28.945 25.0748C28.945 29.2217 30.3667 32.1527 32.6699 33.5622C32.6699 33.5622 38.334 36.8468 39.2856 37.3976C39.3614 37.4419 39.4555 37.4097 39.493 37.3297L40.8092 34.5758L39.566 33.8772C40.3703 33.5886 41.1994 33.2028 42.049 32.7085C42.2557 32.5878 42.461 32.4613 42.6657 32.3306C43.3312 33.6622 43.3397 35.9896 43.1209 38.257C43.0742 38.7377 43.2427 39.002 43.499 39.0728L49.6396 42.6489C49.7203 42.696 49.8237 42.6581 49.8563 42.5703L50.4942 40.8479L50.2018 33.47H46.8819L53.014 19.4121C54.5766 15.7245 55.3859 11.8477 55.0942 8.37732Z" fill="#D8C2FF"/>
<path d="M49.7147 43.0439C49.624 43.0439 49.5334 43.0203 49.4534 42.9732L43.3482 39.4178C43.1337 39.3414 42.6692 39.0749 42.752 38.2205C42.9821 35.8324 42.8929 34.0015 42.4943 32.8792C42.4079 32.9314 42.3223 32.9828 42.2359 33.0328C41.6405 33.38 41.0386 33.6829 40.4382 33.9379L41.2971 34.4208L39.8294 37.4933C39.7656 37.6255 39.6502 37.7262 39.5122 37.7698C39.3748 37.8133 39.2254 37.7955 39.1015 37.724C38.6753 37.4776 32.5757 33.9444 32.5205 33.9108C29.9603 32.3435 28.574 29.2153 28.574 25.0763C28.574 15.8746 35.4906 4.6555 43.3744 1.06726C46.2532 -0.242167 49.0293 -0.349321 51.193 0.765799C51.2022 0.770799 51.5428 0.959391 51.6992 1.05797L57.7266 4.54835C57.8689 4.6305 57.9659 4.77766 57.985 4.94268C58.0048 5.10698 57.9454 5.27343 57.8264 5.38844L55.3958 7.71226C55.4227 7.92014 55.4468 8.13087 55.4652 8.34661C55.7519 11.7498 55.022 15.6281 53.356 19.56L47.4519 33.0964H50.5586L50.8687 40.9101L50.2046 42.7032C50.1501 42.8503 50.0354 42.9632 49.8903 43.0153C49.8329 43.036 49.7741 43.046 49.7147 43.046V43.0439ZM42.8136 31.7934L42.9977 32.162C43.6017 33.3693 43.7673 35.4324 43.4912 38.2934C43.4742 38.4677 43.4926 38.682 43.5981 38.7106L43.6859 38.7477L49.6 42.1917L50.1204 40.7872L49.8449 33.8451H46.3127L52.6742 19.2606C54.2906 15.4438 55 11.6898 54.7239 8.40948C54.7012 8.14088 54.6687 7.88013 54.6333 7.62368L54.6064 7.43223L57.0986 5.04912L50.8447 1.4273C48.8672 0.408617 46.3856 0.517915 43.6795 1.74948C36.028 5.23199 29.3167 16.1317 29.3167 25.0748C29.3167 28.9417 30.5756 31.842 32.8625 33.2414C32.9935 33.3207 37.9007 36.1632 39.2615 36.9511L40.3221 34.7316L38.6682 33.8015L39.4421 33.5236C40.245 33.235 41.0592 32.8514 41.8635 32.3828C42.066 32.2649 42.2671 32.1406 42.4681 32.0127L42.8136 31.7927V31.7934Z" fill="#6B43B5"/>
<path d="M52.6473 20.2993L53.0161 19.4542C54.5787 15.7667 55.388 11.8898 55.0963 8.42018C55.0729 8.14444 55.0404 7.87727 55.0028 7.61367L57.5715 5.15769C57.6452 5.08768 57.6303 4.96624 57.5432 4.91552L51.0252 1.14155C49.0137 0.104292 46.4075 0.140724 43.5287 1.45086C40.0991 3.01175 36.8989 5.98349 34.3755 9.58317L52.648 20.3L52.6473 20.2993Z" fill="white"/>
<path d="M52.82 20.8344L33.836 9.70033L34.0711 9.3653C36.7431 5.55489 40.0474 2.62243 43.3751 1.10798C46.2539 -0.202157 49.0307 -0.309312 51.1937 0.806522C51.2029 0.811523 51.5428 1.00011 51.6992 1.0987L57.7266 4.58907C57.8696 4.67194 57.9659 4.81909 57.9857 4.98483C58.0055 5.14913 57.9454 5.31558 57.8264 5.42987L55.3958 7.75298C55.4234 7.96086 55.4475 8.1716 55.4652 8.38805C55.7441 11.697 55.0616 15.4545 53.4919 19.2749L52.8193 20.8344H52.82ZM34.915 9.46531L52.4745 19.7643L52.6728 19.3064C54.2913 15.4867 55.0007 11.7334 54.7246 8.45163C54.7019 8.18231 54.6701 7.923 54.6333 7.66654L54.6056 7.47438L57.0986 5.09127L50.8447 1.46945C48.8672 0.450055 46.3863 0.560067 43.6795 1.79163C40.5671 3.20749 37.4667 5.92493 34.9136 9.46459L34.915 9.46531Z" fill="#6B43B5"/>
<path d="M59.377 23.1046C60.9396 19.4171 61.7488 15.5402 61.4571 12.0706C60.885 5.27271 56.0004 2.32025 49.8896 5.10127C41.9902 8.69594 35.308 19.7693 35.308 28.7681C35.308 37.1997 41.1746 40.6172 48.4119 36.4018C48.6187 36.281 48.824 36.1546 49.0286 36.0239C49.6941 37.3562 49.7026 39.6828 49.4839 41.9502C49.3628 43.2061 50.7002 42.996 51.2773 41.673L59.377 23.1046Z" fill="#6B43B5"/>
<path d="M50.0149 43.1632C49.9327 43.1632 49.852 43.1532 49.7734 43.1325C49.5957 43.086 49.0229 42.8589 49.1143 41.9145C49.3444 39.5271 49.2552 37.6962 48.8566 36.5732C48.7702 36.6253 48.6838 36.6775 48.5974 36.7275C44.9773 38.8363 41.5548 39.1649 38.9599 37.654C36.365 36.1424 34.9355 32.9871 34.9355 28.7695C34.9355 19.5678 41.8522 8.34874 49.7359 4.7605C52.7832 3.37393 55.6811 3.33392 57.8972 4.64692C60.1416 5.97778 61.5378 8.60306 61.8267 12.0391C62.1049 15.3488 61.4231 19.1063 59.8527 22.926L51.6164 41.8245C51.2645 42.631 50.6096 43.1632 50.0135 43.1632H50.0149ZM49.1766 35.4867L49.3607 35.8553C49.9646 37.0633 50.1303 39.1256 49.8534 41.9859C49.8364 42.1624 49.8549 42.3781 49.9611 42.406C50.1416 42.4553 50.6393 42.2045 50.9367 41.5216L59.0336 22.9567C60.6521 19.137 61.3615 15.3838 61.0861 12.102C60.8171 8.91523 59.5511 6.49712 57.5205 5.2927C55.5183 4.10615 52.8632 4.15901 50.0418 5.44272C42.3902 8.92452 35.679 19.8243 35.679 28.7681C35.679 32.7064 36.976 35.631 39.3316 37.0025C41.6858 38.3755 44.8456 38.0462 48.225 36.0767C48.4282 35.9588 48.6293 35.8345 48.8296 35.7067L49.1752 35.4859L49.1766 35.4867Z" fill="#6B43B5"/>
<path d="M29.2974 26.5247L28.9267 27.1749L35.2897 30.868L35.6604 30.2178L29.2974 26.5247Z" fill="#6B43B5"/>
<path d="M44.195 0.954727L43.8243 1.6049L50.1867 5.29772L50.5573 4.64754L44.195 0.954727Z" fill="#6B43B5"/>
<path d="M44.0059 20.2622C46.0245 17.3369 48.3043 18.477 48.807 19.1999C48.807 19.1999 48.8162 19.2028 48.8204 19.192C49.3231 17.8833 51.6029 14.0872 53.6215 14.6608C55.7385 15.2623 55.3328 17.8255 54.3005 20.8215C53.4629 23.2518 49.7048 29.7589 48.9047 31.1326C48.8212 31.2755 48.6916 31.3548 48.6087 31.3076C47.6451 30.764 44.212 28.7516 43.3262 27.2143C42.2932 25.4213 41.8883 23.3304 44.0052 20.2622H44.0059Z" fill="#6B43B5"/>
<path d="M48.664 31.6684C48.5882 31.6684 48.5125 31.6491 48.4417 31.6098C47.1148 30.8605 43.9288 28.9488 43.0303 27.3879C42.107 25.7842 41.3516 23.5032 43.7241 20.0643C44.8895 18.3748 46.1194 18.0184 46.9428 18.0162C47.6614 18.0162 48.2859 18.2798 48.7008 18.6034C49.4959 16.9225 51.6221 13.735 53.7143 14.3273C54.3876 14.5187 54.8768 14.9016 55.1678 15.4645C55.7243 16.5411 55.5565 18.2284 54.6233 20.9358C53.7737 23.4018 49.9561 30.0089 49.1999 31.3084C49.0661 31.5391 48.8622 31.6691 48.6626 31.6691L48.664 31.6684ZM46.9449 18.7084C45.9976 18.7106 45.0772 19.3156 44.2884 20.4601C42.1495 23.5597 42.7528 25.5256 43.6243 27.04C44.2722 28.1659 46.6037 29.7639 48.6257 30.9183C49.4959 29.4332 53.1641 23.0689 53.9776 20.7079C54.515 19.1485 55.16 16.9425 54.561 15.7846C54.3585 15.3917 54.0208 15.1331 53.5295 14.9938C51.9201 14.5316 49.7189 17.8141 49.1419 19.3164L49.0675 19.5099L48.6449 19.5721L48.5231 19.3921C48.3418 19.1321 47.7464 18.7091 46.9456 18.7091L46.9449 18.7084Z" fill="white"/>
<path d="M53.5125 19.6457L52.8632 19.4214C52.9871 19.0528 53.2611 17.8991 52.9014 17.4469C52.8533 17.3869 52.7082 17.204 52.221 17.259L52.146 16.5711C52.8568 16.4911 53.2413 16.7682 53.4367 17.014C54.0959 17.8433 53.5733 19.4628 53.5117 19.645L53.5125 19.6457Z" fill="white"/>
<path d="M48.4679 28.6945C48.4218 28.6709 47.3195 28.1137 46.1803 27.2322L46.598 26.6829C47.682 27.5222 48.7638 28.0694 48.7744 28.0752L48.4686 28.6952L48.4679 28.6945Z" fill="white"/>
</g>
<defs>
<clipPath id="clip0_4_69">
<rect width="94.8387" height="120" fill="white" transform="translate(0.0806427)"/>
</clipPath>
</defs>
</svg>
